<?xml version="1.0" encoding="UTF-8"?>
<svg id="Layer_1" data-name="Layer 1" xmlns="http://www.w3.org/2000/svg" viewBox="0 0 4402.77 4554.86">
  <defs>
    <style>
      .cls-1 {
        fill: #fff;
        stroke-width: 0px;
      }
    </style>
  </defs>
  <path class="cls-1" d="M3941.05,4491.9c-117.29-2.98-234.74-.79-352.19-1.41-23.87-.16-59.51,7.85-38.79-39.1,76.78-173.35,75.21-359.1,79.45-542.33,5.5-237.25,1.1-474.82,1.1-712.07-.16-316.07,0-632.15,0-955.28,31.72,50.87,59.98,99.86,92.01,146.18,36.9,53.39,89.03,80.71,154.19,64.38,62.33-15.86,54.22-68.38,51.19-116.03-6.19-97.33-43.02-176.33-106.3-244-176.64-189.05-413.27-239.45-653.65-243.85-560.55-10.21-1121.56-3.14-1682.43-3.61-25.75,0-52.28-1.1-77.09-6.91-237.25-56.84-365.53-240.08-340.88-503.71,14.76-159.06,12.72-317.8,9.1-476.39-3.76-173.5-59.82-330.52-216.21-425.82-79.14-48.2-122.32-114.47-156.54-194.86-28.26-66.42-48.68-138.49-102.06-191.24-31.4-30.93-68.15-67.36-114.62-29.99-39.73,32.03-14.29,70.81,3.77,105.2,8.48,15.86,20.57,29.83,29.2,45.69,44.91,81.96,229.41,195.26,227.11,203.65,4.2,12.88-77.95,4.08-95.53,3.3-200.51-9.26-386.26,39.73-558.35,141.63C15.03,561.79-13.39,622.71,5.76,696.67c20.26,77.25,55.27,98.92,160.47,98.92,200.82.31,401.64,0,602.47,1.26,18.21,0,44.75-4.24,51.66,16.96,10.05,31.09-25.91,27.63-52.92,29.83-13.03.94-26.38.47-39.1,0-99.7-3.77-121.06,31.56-149.79,99.39-163.29,384.69-244,779.9-173.81,1199.44,52.76,316.07,164.71,602.78,400.7,825.28,95.15,89.5,136.29,193.29,147.28,313.87,5.34,58.57,32.35,71.91,80.71,65.79,64.06-8.32,127.65-21.67,191.87-28.26,33.76-3.45,79.29-21.2,98.13,22.77,83.69,195.48,206.95,374.95,249.81,586.77,33.92,167.53,32.97,335.39-37.84,496.33-14.6,33.44-27.16,67.2-75.53,65.95-86.04-2.36-172.09-1.73-258.13-.31-49.62.78-42.71-22.61-26.54-52.92,22.14-41.61,35.96-85.73,46.64-131.73,23.71-101.75,21.51-206.01,33.76-308.54,22.92-192.03-2.51-385.32,24.81-576.72,6.12-43.49-16.96-62.02-61.55-54.64-63.59,10.52-127.34,21.83-191.56,27.48-42.86,3.77-44.28,23.55-36.42,57.31,42.7,183.87,90.44,366.47,112.74,554.89,18.21,154.5-8.95,299.27-66.11,441.37-15.85,39.57-44.75,43.02-81.18,44.43-38.31,1.73-50.4-20.88-58.41-49.46-27.79-97.82-39.57-198.15-38.47-299.59.31-38.31-7.22-76.94,15.07-114.15,86.2-144.93.15-224.68-53.23-347.16-21.88-50.22-17.68-56.1-37.53-6.75-30.89,76.79-97.66,259.39-34.86,312.77,95.62,81.18,41.14,179.78,59.98,269.59-77.41-120.74-147.75-244-218.88-366.94-15.54-26.85-14.92-55.43-11.62-83.69,23.55-195.48-136.65-248.76-244.47-386.1-45.09-57.43-34.99-59.11-45.85,9.89-18.34,116.54,31.72,339.15,137.07,402.43,38.47,23.08,76.47,46.79,102.85,82.59,104.57,141.78,178.37,300.84,256.09,459.74-69.87-65.47-174.45-84.16-220.29-177.11-59.51-121.22-177.33-134.72-303.35-176.96-87.26-29.25-78.43-43.13-34.86,40.04,54.3,103.64,97.98,215.43,233.17,222.49,152.3,7.85,234.27,122.63,343.23,199.1-39.41,8.01-75.36,8.01-111.48,8.01-182.61.16-365.22-.16-547.83.31-25.28.16-59.51-3.46-57.78,33.76,1.26,30.62,32.35,27.48,55.58,28.11,18.22.63,36.43.16,54.8.16h1729.37c672.97,0,1346.1.31,2019.07-.47,30.93,0,84.16,15.54,84.63-28.42.47-54.17-55.9-31.09-87.3-31.87ZM647.33,514.53c-53.54,49.77-161.57,38.63-221.24-30.78,76.78-.31,144.61,27.95,207.58-12.09,9.58-6.12,29.05-6.91,30.62,10.68.79,10.36-8.32,24.18-16.96,32.19ZM2930.03,4438.35c-13.19,29.05-26.07,52.91-66.73,52.76-393.95-1.73-787.91-1.41-1181.7-2.04-4.71,0-9.26-3.61-14.76-5.96,132.21-391.91,71.44-797.8,85.26-1198.19,4.08-119.49-18.06-106.14,107.71-111.17,363.96-14.29,714.26-92.01,1047.14-240.55,149.64-66.73,295.35-141.94,442.79-213.23,26.85-13.03,64.06-51.19,80.86-20.57,20.88,38-34.86,49.93-59.82,63.75-225.63,124.51-457.54,235.84-702.49,317.01-55.43,18.37-74.27,30.15-36.58,90.28,154.03,244.79,297.39,496.33,346.53,786.65,27.48,162.82,22.3,326.28-48.2,481.25ZM3410.49,4441.34c-12.25,27.32-21.51,50.87-59.04,50.09-95.62-1.73-191.4-.63-291.11-.63,124.98-384.22,72.39-776.76,107.56-1162.07,16.02-4.08,24.18,8.63,29.2,19.16,94.68,192.66,212.29,374.8,254.05,591.16,33.44,172.4,32.81,339.47-40.67,502.29Z"/>
  <path class="cls-1" d="M4363.58,1641.45c-44.13,12.84-125.61,10.21-185.28,43.18-97.2,53.7-139.27,144.61-164.87,255.15-41.93-47.73-71.29-92.48-111.01-124.2-67.67-54.01-76.78-99.39-18.69-171.3,89.34-110.85,140.69-239.45,120.75-391.44-187.32,62.02-304.77,173.35-282.31,386.1-16.17-2.83-22.14-2.2-25.6-4.71-6.12-4.71-11.46-10.68-15.86-17.12-75.37-109.75-122.94-228.46-110.54-364.59,2.2-23.24,5.97-43.18-24.65-44.12-24.97-.94-38.16,14.13-39.41,38.63-.94,18.21-1.73,36.58-.47,54.8,8.48,109.75,43.49,211.97,86.99,314.82-48.68-43.18-60.45-110.85-109.6-156.7-104.73-97.82-236.15-96.41-364.43-107.87-32.03-2.98-37.25-14.63-23.75,6.41,80.55,125.61,179.82,269.78,341.39,283.92,99.24,8.79,192.97,42.71,274.46,90.44,143.36,84,254.05,203.49,307.44,368.67,28.26,87.3,16.17,175.07,19,263,.47,14.6-5.96,35.01,15.23,38.47,24.02,3.77,29.2-15.86,31.4-35.01,8.32-74.11,10.45-140.84-1.89-222.02-9.68-63.71-2.04-89.81,46.95-120.12,85.42-52.76,169.63-143.45,194.54-217.31,79.97-237.08,110.25-187.45,40.2-167.06ZM3298.39,1482.08c83.22,10.52,149.63,52.91,211.19,104.41-78.82-17.9-146.5-58.88-211.19-104.41ZM3867.72,1451.93c-13.5,78.82-48.99,132.68-74.58,190.3,9.11-63.43,6.44-131.11,74.58-190.3ZM4106.07,1929.26c9.73-60.3,50.4-98.45,89.81-137.7-19.16,53.07-42.55,103.47-89.81,137.7Z"/>
  <path class="cls-1" d="M3638.48,664.5c-161.88,117.45-213.85,286.55-154.82,437.29,12.56,32.03,21.04,67.83,62.34,70.81,44.59,3.14,62.81-31.09,77.72-65.32,62.96-143.51,76.78-289.38,14.76-442.78ZM3546.47,1065.83c-3.77-82.75,8.95-161.73,48.2-235.05.94,81.96-10.99,161.25-48.2,235.05Z"/>
  <path class="cls-1" d="M3418.09,1116.08c0,56.73-30.21,87.2-82.58,87.53-48.49.31-68.79-35.73-69.77-76.49-1.13-46.9,26.59-76.65,76.33-77.69,47.56-.99,76.02,32.07,76.02,66.64Z"/>
  <path class="cls-1" d="M3840.82,1116.08c0,56.73-30.21,87.2-82.58,87.53-48.49.31-68.79-35.73-69.77-76.49-1.13-46.9,26.59-76.65,76.33-77.69,47.56-.99,76.02,32.07,76.02,66.64Z"/>
</svg>